<svg xmlns="http://www.w3.org/2000/svg" width="1440" height="577" viewBox="0 0 1440 577">
    <defs>
        <linearGradient id="ds1ktpng2a" x1="10.186%" x2="77.537%" y1="90.272%" y2="27.431%">
            <stop offset="18.004%" stop-color="#FF246E"/>
            <stop offset="89.459%" stop-color="#AF1DF5"/>
        </linearGradient>
        <linearGradient id="h9vasr1ncb" x1="30.771%" x2="59.672%" y1="97.008%" y2="24.351%">
            <stop offset="4.423%" stop-color="#F7C644"/>
            <stop offset="100%" stop-color="#FF5C3D"/>
        </linearGradient>
        <linearGradient id="fqr54qmrcc" x1="-8.878%" x2="72.769%" y1="-8.187%" y2="68.683%">
            <stop offset="4.423%" stop-color="#F7C644"/>
            <stop offset="100%" stop-color="#FF5C3D"/>
        </linearGradient>
        <linearGradient id="5f0hwb8dzd" x1="97.089%" x2="24.194%" y1="19.589%" y2="82.038%">
            <stop offset="18.004%" stop-color="#FF246E"/>
            <stop offset="89.459%" stop-color="#AF1DF5"/>
        </linearGradient>
        <linearGradient id="uzoixtkmke" x1="47.511%" x2="120.39%" y1="63.423%" y2="-47.741%">
            <stop offset="4.423%" stop-color="#F7C644"/>
            <stop offset="100%" stop-color="#FF5C3D"/>
        </linearGradient>
        <linearGradient id="3hihn5zxpf" x1="5530.466%" x2="5706.13%" y1="-13869.835%" y2="-13869.835%">
            <stop offset="4.423%" stop-color="#F7C644"/>
            <stop offset="100%" stop-color="#FF5C3D"/>
        </linearGradient>
        <linearGradient id="2cx9i2ayxg" x1="19.287%" x2="79.588%" y1="32.947%" y2="79.127%">
            <stop offset="18.004%" stop-color="#FF246E"/>
            <stop offset="89.459%" stop-color="#AF1DF5"/>
        </linearGradient>
        <linearGradient id="c5pj33435h" x1="59.821%" x2="18.651%" y1="79.993%" y2="20.007%">
            <stop offset="18.004%" stop-color="#FF246E"/>
            <stop offset="89.459%" stop-color="#AF1DF5"/>
        </linearGradient>
        <linearGradient id="6rgm60w6ki" x1="43.313%" x2="242.198%" y1="56.822%" y2="-142.42%">
            <stop offset="4.423%" stop-color="#F7C644"/>
            <stop offset="100%" stop-color="#FF5C3D"/>
        </linearGradient>
        <linearGradient id="68fkx1fwqj" x1="76.038%" x2="18.034%" y1="68.978%" y2="19.736%">
            <stop offset="18.004%" stop-color="#FF246E"/>
            <stop offset="89.459%" stop-color="#AF1DF5"/>
        </linearGradient>
        <linearGradient id="gw9a6pc2ik" x1="69.964%" x2="-17.593%" y1="36.346%" y2="156.501%">
            <stop offset="18.004%" stop-color="#FF246E"/>
            <stop offset="89.459%" stop-color="#AF1DF5"/>
        </linearGradient>
        <linearGradient id="l8h87no2ol" x1="45.992%" x2="74.191%" y1="22.532%" y2="70.206%">
            <stop offset="18.004%" stop-color="#FF246E"/>
            <stop offset="89.459%" stop-color="#AF1DF5"/>
        </linearGradient>
        <linearGradient id="5f0u88c71m" x1="13.913%" x2="105.501%" y1="46.614%" y2="102.562%">
            <stop offset="18.004%" stop-color="#FF246E"/>
            <stop offset="89.459%" stop-color="#AF1DF5"/>
        </linearGradient>
        <linearGradient id="u88n6x7rdn" x1="218.5%" x2="40.205%" y1="-77.574%" y2="65.614%">
            <stop offset="18.004%" stop-color="#FF246E"/>
            <stop offset="89.459%" stop-color="#AF1DF5"/>
        </linearGradient>
        <linearGradient id="kqcoubc76o" x1="73.065%" x2="29.733%" y1="50.94%" y2="71.996%">
            <stop offset="18.004%" stop-color="#FF246E"/>
            <stop offset="89.459%" stop-color="#AF1DF5"/>
        </linearGradient>
        <linearGradient id="fn0qezfatp" x1="-21.507%" x2="106.395%" y1="12.495%" y2="75.84%">
            <stop offset="4.423%" stop-color="#F7C644"/>
            <stop offset="100%" stop-color="#FF5C3D"/>
        </linearGradient>
        <linearGradient id="p6yizmzt2q" x1="26.504%" x2="85.81%" y1="52.526%" y2="30.568%">
            <stop offset="18.004%" stop-color="#FF246E"/>
            <stop offset="89.459%" stop-color="#AF1DF5"/>
        </linearGradient>
        <linearGradient id="bl1iba0ijr" x1="32.104%" x2="171.384%" y1="26.912%" y2="116.56%">
            <stop offset="18.004%" stop-color="#FF246E"/>
            <stop offset="89.459%" stop-color="#AF1DF5"/>
        </linearGradient>
        <linearGradient id="s28ix73zys" x1="-102.591%" x2="115.39%" y1="50%" y2="50%">
            <stop offset="4.423%" stop-color="#F7C644"/>
            <stop offset="100%" stop-color="#FF5C3D"/>
        </linearGradient>
        <linearGradient id="8zt6nmen9t" x1="25.298%" x2="80.027%" y1="79.283%" y2="44.165%">
            <stop offset="18.004%" stop-color="#FF246E"/>
            <stop offset="89.459%" stop-color="#AF1DF5"/>
        </linearGradient>
        <linearGradient id="i6kpdkmzgu" x1="20.007%" x2="79.993%" y1="20.007%" y2="79.993%">
            <stop offset="18.004%" stop-color="#FF246E"/>
            <stop offset="89.459%" stop-color="#AF1DF5"/>
        </linearGradient>
        <linearGradient id="h4lank9qpv" x1="79.993%" x2="20.007%" y1="20.007%" y2="79.993%">
            <stop offset="18.004%" stop-color="#FF246E"/>
            <stop offset="89.459%" stop-color="#AF1DF5"/>
        </linearGradient>
        <linearGradient id="dponjwaakw" x1="79.993%" x2="20.007%" y1="79.993%" y2="20.007%">
            <stop offset="18.004%" stop-color="#FF246E"/>
            <stop offset="89.459%" stop-color="#AF1DF5"/>
        </linearGradient>
        <linearGradient id="kywyzq596x" x1="20.124%" x2="79.876%" y1="19.949%" y2="80.052%">
            <stop offset="18.004%" stop-color="#FF246E"/>
            <stop offset="89.459%" stop-color="#AF1DF5"/>
        </linearGradient>
        <linearGradient id="l973se2oxy" x1="80.052%" x2="19.948%" y1="20.124%" y2="79.876%">
            <stop offset="18.004%" stop-color="#FF246E"/>
            <stop offset="89.459%" stop-color="#AF1DF5"/>
        </linearGradient>
        <linearGradient id="o5xzcrh14z" x1="79.539%" x2="20.464%" y1="19.085%" y2="71.989%">
            <stop offset="18.004%" stop-color="#FF246E"/>
            <stop offset="89.459%" stop-color="#AF1DF5"/>
        </linearGradient>
        <linearGradient id="aozqfy144A" x1="15.245%" x2="79.731%" y1="19.901%" y2="60.011%">
            <stop offset="18.004%" stop-color="#FF246E"/>
            <stop offset="89.459%" stop-color="#AF1DF5"/>
        </linearGradient>
        <linearGradient id="bryxgxiyhB" x1="5.456%" x2="76.267%" y1="5.532%" y2="66.27%">
            <stop offset="18.004%" stop-color="#FF246E"/>
            <stop offset="89.459%" stop-color="#AF1DF5"/>
        </linearGradient>
        <linearGradient id="4o0du20o1C" x1="20.007%" x2="79.993%" y1="81.926%" y2="31.724%">
            <stop offset="4.423%" stop-color="#F7C644"/>
            <stop offset="100%" stop-color="#FF5C3D"/>
        </linearGradient>
        <linearGradient id="b0g65ckptD" x1="83.771%" x2="20.012%" y1="19.334%" y2="64.51%">
            <stop offset="18.004%" stop-color="#FF246E"/>
            <stop offset="89.459%" stop-color="#AF1DF5"/>
        </linearGradient>
    </defs>
    <g fill="none" fill-rule="evenodd">
        <g>
            <g transform="translate(0 1) translate(0 -1)">
                <path fill="#000" fill-rule="nonzero" d="M0 0H1440V576.935H0z"/>
                <path d="M266.94 576.935L343.476 576.935 305.208 538.668zM1361.492 0L1296.374 0 1328.854 32.638zM1369.392 561.99L1369.141 562.241 1354.374 576.935 1440 576.935 1440 491.726zM150.872 567.004L102.421 518.553 43.754 576.935 160.802 576.935 151.122 567.255z"/>
                <path fill="url(#ds1ktpng2a)" fill-rule="nonzero" d="M522.277 504.315L585.026 441.566 459.314 315.855 396.566 378.604 396.315 378.855 305.23 469.94 339.583 504.293 305.208 538.668 343.476 576.935 449.657 576.935 522.026 504.566z"/>
                <path fill="url(#h9vasr1ncb)" fill-rule="nonzero" d="M25.411 441.544L100.131 366.825 51.73 318.187 0 369.665 0 576.935 43.754 576.935 102.421 518.553z"/>
                <path fill="url(#fqr54qmrcc)" fill-rule="nonzero" d="M727.711 39.958L790.307 102.859 734.317 158.577 793.06 217.319 918.771 91.608 887.592 60.43 875.066 72.975 813.113 72.975 740.245 0 687.949 0 727.461 39.706z"/>
                <path fill="url(#5f0hwb8dzd)" fill-rule="nonzero" d="M1369.392 561.99L1440 491.726 1440 467.283 1397.49 424.774 1397.239 424.522 1326.54 353.823 1243.989 435.972 1243.737 436.223 1180.836 498.818 1193.825 511.87 1214.272 491.423 1299.783 576.935 1354.374 576.935 1369.141 562.241z"/>
                <path fill="url(#uzoixtkmke)" fill-rule="nonzero" d="M1347.554 51.43L1347.804 51.682 1410.399 114.584 1397.694 127.227 1440 169.533 1440 0 1361.492 0 1328.854 32.638z"/>
                <path fill="url(#3hihn5zxpf)" fill-rule="nonzero" d="M102.421 518.553L113.981 507.05 114.232 506.8 177.134 444.204 100.131 366.825 25.411 441.544z"/>
                <path fill="url(#2cx9i2ayxg)" fill-rule="nonzero" d="M305.23 469.94L276.833 441.544 276.583 441.294 151.123 315.833 100.131 366.825 25.411 441.544 102.421 518.553 150.872 567.005 151.122 567.255 160.802 576.935 266.94 576.935 305.208 538.668 339.583 504.293z"/>
                <path fill="url(#c5pj33435h)" fill-rule="nonzero" d="M215.621 205.453L90.162 79.993 89.91 79.742 27.162 16.993 0 44.156 0 241.253 89.91 331.164z"/>
                <path fill="url(#6rgm60w6ki)" fill-rule="nonzero" d="M1347.804 51.682L1347.554 51.43 1328.854 32.638 1315.98 45.512 1397.694 127.227 1410.399 114.584z"/>
                <path fill="url(#68fkx1fwqj)" fill-rule="nonzero" d="M1347.804 51.682L1347.554 51.43 1328.854 32.639 1296.374 0 1151.267 0 1217.47 66.526 1164.359 119.378 1221.536 176.835 1221.786 177.086 1284.381 239.988 1397.694 127.227 1410.399 114.584z"/>
                <path fill="url(#gw9a6pc2ik)" fill-rule="nonzero" d="M1326.54 353.823L1397.239 424.522 1397.49 424.774 1440 467.283 1440 381.408 1369.755 310.819z"/>
                <path fill="url(#l8h87no2ol)" fill-rule="nonzero" d="M1397.49 173.352L1271.779 299.063 1326.54 353.823 1397.239 424.522 1397.49 424.774 1440 467.283 1440 381.408 1440 215.861z"/>
                <path fill="url(#5f0u88c71m)" fill-rule="nonzero" d="M827.547 451.237l-45.997 45.998c7.129 2.18 13.589 6.131 18.776 11.485 2.65 2.627 4.963 5.573 6.886 8.771l-59.735 59.444h205.768l-.238-.238-125.46-125.46z"/>
                <path fill="url(#u88n6x7rdn)" fill-rule="nonzero" d="M1193.825 511.87L1258.572 576.935 1299.783 576.935 1214.272 491.423z"/>
                <path fill="url(#kqcoubc76o)" fill-rule="nonzero" d="M1214.272 491.423L1193.825 511.87 1128.76 576.935 1258.572 576.935 1299.783 576.935z"/>
                <path fill="url(#fn0qezfatp)" fill-rule="nonzero" d="M875.066 72.975L887.592 60.43 856.022 28.86 855.771 28.609 827.162 0 740.245 0 813.113 72.975z"/>
                <path fill="url(#p6yizmzt2q)" fill-rule="nonzero" d="M827.162 0L740.245 0 813.113 72.975 875.066 72.975 887.592 60.43 947.926 0z"/>
                <path fill="url(#bl1iba0ijr)" fill-rule="nonzero" d="M145.002 86.457L194.446 37.015 194.696 36.763 231.459 0 134.36 0 96.48 37.696z"/>
                <path fill="url(#s28ix73zys)" fill-rule="nonzero" d="M134.36 0L31.934 0 131.697 99.763 145.002 86.457 194.446 37.015 194.696 36.763 231.459 0z"/>
                <path fill="url(#8zt6nmen9t)" fill-rule="nonzero" d="M800.326 508.72c-5.188-5.354-11.647-9.305-18.776-11.485-6.233-1.777-12.687-2.656-19.168-2.609l-3.902-41.629c.846-.1 1.692-.19 2.539-.267l-70.04-70.383-62.902 62.595-.251.25L502.06 570.347l6.557 6.59h238.86l59.735-59.444c-1.923-3.198-4.236-6.145-6.886-8.772z"/>
                <path fill="url(#i6kpdkmzgu)" fill-rule="nonzero" d="M1217.226 197.45L1216.976 197.199 1091.515 71.739 965.804 197.45 1091.265 322.91 1091.515 323.161 1154.264 385.91 1279.975 260.199z"/>
                <path fill="url(#h4lank9qpv)" fill-rule="nonzero" d="M1051.438 282.343L1051.688 282.092 1177.149 156.632 1051.438 30.921 925.977 156.38 925.726 156.632 862.978 219.38 988.689 345.091z"/>
                <path fill="url(#dponjwaakw)" fill-rule="nonzero" d="M531.353 268.698L531.605 268.949 657.065 394.409 782.776 268.697 657.316 143.238 657.065 142.987 594.316 80.238 468.605 205.949z"/>
                <path fill="#FFF" fill-rule="nonzero" d="M579.994 215.703L564 231.696 579.993 247.688 595.881 263.577 629.697 229.762 645.689 213.769 679.505 179.954 663.617 164.066 663.643 164.039 647.65 148.046 631.657 164.039 647.649 180.033 595.986 231.696z"/>
                <path fill="url(#kywyzq596x)" fill-rule="nonzero" d="M916.345 314.642L916.095 314.39 790.942 188.624 664.924 314.028 790.078 439.795 790.327 440.046 852.923 502.947 978.94 377.544z"/>
                <path fill="#FFF" fill-rule="nonzero" d="M825.945 408.561L812.768 421.738 826.032 435.002 841.92 450.89 875.735 417.075 891.728 401.082 925.543 367.267 909.655 351.379 909.681 351.352 896.417 338.088 883.334 351.171 899.327 367.164 841.937 424.553zM1291.019 491.868L1277.842 505.045 1291.106 518.309 1306.994 534.198 1340.809 500.382 1356.803 484.39 1390.617 450.574 1374.729 434.686 1374.755 434.659 1361.491 421.395 1348.409 434.479 1364.401 450.471 1307.012 507.861zM168.955 513.139c-14.204 6.572-26.075 13.356-38.16 25.44-1.471 1.471-2.809 2.931-4.012 4.38l-4.316-4.296-.252-.25-26.406-26.278c18.848-18.353 35.642-28.101 53.217-35.459l19.929 36.463zM1254.36 26.936L1250.143 39.372 1257.996 49.896 1244.865 49.729 1237.284 60.45 1233.385 47.91 1220.845 44.013 1231.567 36.43 1231.399 23.3 1241.923 31.154zM1287.079 59.655L1282.861 72.091 1290.715 82.615 1277.584 82.447 1270.001 93.169 1266.104 80.629 1253.564 76.731 1264.285 69.149 1264.118 56.018 1274.642 63.872zM1319.796 92.373L1315.579 104.81 1323.434 115.334 1310.303 115.166 1302.72 125.888 1298.823 113.348 1286.283 109.45 1297.004 101.868 1296.837 88.737 1307.361 96.59zM1237.638 74.528L1233.421 86.965 1241.274 97.489 1228.144 97.321 1220.562 108.042 1216.663 95.503 1204.124 91.605 1214.846 84.022 1214.677 70.892 1225.202 78.746zM1270.357 107.247L1266.14 119.684 1273.993 130.208 1260.863 130.039 1253.281 140.761 1249.382 128.222 1236.843 124.323 1247.565 116.741 1247.396 103.611 1257.92 111.464z"/>
                <path d="M1391.472 356.954c1.701-2.504 4.532-4.004 7.56-4.005l.06.012h.002c8.2 1.142 16.019-3.827 18.467-11.735 2.448-7.909-1.197-16.426-8.608-20.116-7.41-3.69-16.404-1.464-21.239 5.256-4.835 6.72-4.087 15.954 1.767 21.809.032.035.058.074.078.117 1.48 1.665 2.297 3.816 2.294 6.044 0 .886-.128 1.768-.38 2.618z"/>
                <path fill="#000" fill-rule="nonzero" d="M1352.329 287.136c.105-.105.216-.201.322-.306.054-.057.102-.119.158-.175l-.48.481zM1376.876 360.779c-.068-.069-.13-.14-.198-.21-.035-.033-.074-.062-.108-.097l.306.307zM1376.876 311.684c-.077.077-.147.158-.223.235.264-.207.515-.43.754-.665l-.53.43z"/>
                <path fill="#FFF" fill-rule="nonzero" d="M482.577 126.446L451.545 95.414 482.577 64.381zM762.382 494.626c16.696.217 27.97 4.12 37.944 14.094 2.65 2.627 4.963 5.573 6.886 8.771l9.17-9.126-55.364-55.635c-.846.078-1.692.167-2.538.267l3.902 41.63zM813.066 72.972L844.098 41.94 875.13 72.972zM477.13 479.013l-13.835-12.583-14.12 11.326-13.114-11.927 14.12-11.327-13.835-12.583-14.12 11.327-17.987-16.36-12.584 13.834 15.802 14.372-17.543 14.073-16.334-14.856-12.583 13.835 14.148 12.868-14.12 11.326 13.835 12.584 14.12-11.327 13.114 11.928-14.12 11.327 13.835 12.583 14.12-11.327 15.625 14.212 12.583-13.835-13.44-12.224 17.544-14.072 13.971 12.708 12.584-13.835-11.787-10.72 14.12-11.327zm-60.267 24.663l-13.115-11.928 17.544-14.072 13.114 11.928-17.543 14.072zM100.246 180.022L100.246 133.519 22.555 133.519 22.555 211.212 69.058 211.212 69.058 180.022z"/>
                <path fill="#FFF" fill-rule="nonzero" d="M83.985 194.95H115.174V226.13899999999998H83.985z"/>
                <path fill="url(#l973se2oxy)" fill-rule="nonzero" d="M394.447 408.914L394.698 408.664 520.465 283.511 395.06 157.493 269.295 282.646 269.043 282.896 206.142 345.492 331.545 471.509z"/>
                <path fill="#FFF" fill-rule="nonzero" d="M370.639 251.292l-40.914 40.8c-14.052 13.994-14.389 36.638-.76 51.044 13.628 14.406 36.256 15.325 51.007 2.071l13.67 13.707.037-27.238 28.64-28.56c14.31-14.271 14.343-37.441.072-51.752s-37.442-14.343-51.752-.072z"/>
                <circle cx="354.597" cy="318.999" r="8.45" fill="#000" fill-rule="nonzero"/>
                <circle cx="376.535" cy="297.122" r="8.45" fill="#000" fill-rule="nonzero"/>
                <circle cx="398.473" cy="275.244" r="8.45" fill="#000" fill-rule="nonzero"/>
                <path d="M165.018 576.935h26.121c-7.176-6.593-16.623-6.66-26.121 0z"/>
                <path fill="url(#o5xzcrh14z)" fill-rule="nonzero" d="M267.53 89.759L207.258 149.738 332.662 275.755 392.934 215.777 393.175 215.536 513.684 95.615 418.534 0 357.729 0 267.772 89.518z"/>
                <path fill="#FFF" fill-rule="nonzero" d="M233.188 541.757l-.423-.423c-23.955-23.955-54.059-18.02-80.982 8.903-2.985 2.986-5.793 6.106-8.39 9.25l17.533 17.448h4.092c9.498-6.66 18.945-6.593 26.121 0h18.435l28.946-29.088c-1.64-2.146-3.421-4.18-5.332-6.09zM1352.978 287.164c-3.08 3.263-2.97 8.395.25 11.522 3.22 3.126 8.353 3.087 11.525-.088.026-.022.055-.04.085-.057 20.61-19.967 53.421-19.727 73.738.538.12.118.168.291.125.454-.043.162-.17.29-.333.332-.162.043-.335-.004-.453-.125-19.924-19.874-52.09-20.143-72.344-.605-.022.066-.059.126-.107.175-3.073 3.071-3.221 8.006-.337 11.255 2.884 3.25 7.8 3.69 11.215 1.003.07-.07.134-.145.204-.215 6.598-6.598 15.547-10.305 24.878-10.305 9.33 0 18.28 3.707 24.878 10.305.179.183.178.476-.004.658-.181.181-.474.182-.658.003-13.129-13.135-34.337-13.404-47.796-.607-.021.066-.058.127-.106.177-.245.243-.503.471-.773.685-13.07 13.328-13.05 34.67.045 47.973 3.242 3.128 8.4 3.059 11.556-.156 3.157-3.214 3.133-8.372-.053-11.557-.034-.037-.062-.079-.083-.124-5.745-6.16-6.38-15.507-1.522-22.388 4.858-6.882 13.878-9.41 21.606-6.059 7.728 3.352 12.045 11.666 10.34 19.915-1.704 8.25-8.962 14.172-17.385 14.187-.837 0-1.673-.058-2.503-.173-4.522.036-8.163 3.72-8.145 8.243.018 4.521 3.689 8.177 8.21 8.177.102.002.2.037.279.101 9.799.61 19.388-3.018 26.33-9.96.12-.047.216-.142.263-.262.087-.087.206-.137.33-.137.124 0 .243.05.33.137L1440 373.623v-94.548c-27.242-18.333-63.625-14.95-87.022 8.089zM745.036 534.088l22.693 22.693 21.083-20.98-60.905-60.905c-3.035 2.602-6.07 5.637-8.672 8.239-26.406 26.406-39.073 60.953-25.434 93.8h51.637c-.355-.322-.706-.655-1.052-1-11.275-11.276-10.841-27.32.65-41.847z"/>
                <path fill="url(#aozqfy144A)" fill-rule="nonzero" d="M727.711 39.958L727.461 39.706 687.949 0 633.461 0 515.827 0 507.648 8.14 476.29 39.344 601.443 165.11 601.694 165.362 664.289 228.262 734.317 158.577 790.307 102.859z"/>
                <path fill="#FFF" fill-rule="nonzero" d="M634.062 55.886L605.91 27.734 592.917 40.727 621.069 68.879 600.732 89.215 654.399 89.215 654.399 35.549z"/>
                <path fill="#FFF" fill-rule="nonzero" d="M662.642 59.603L681.343 59.603 681.343 154.98 662.642 154.98z" transform="rotate(45 671.993 107.292)"/>
                <path fill="url(#bryxgxiyhB)" fill-rule="nonzero" d="M194.446 37.015L145.002 86.457 221.633 163.462 221.883 163.714 284.479 226.616 410.496 101.211 347.901 38.31 347.651 38.058 309.778 0 231.459 0 194.696 36.763z"/>
                <path fill="#FFF" fill-rule="nonzero" d="M322.321 69.023L283.983 69.023 283.983 30.685 265.282 30.685 265.282 69.023 226.944 69.023 226.944 87.724 265.282 87.724 265.282 126.062 283.983 126.062 283.983 87.724 322.321 87.724z"/>
                <path fill="url(#4o0du20o1C)" fill-rule="nonzero" d="M1152.096 502.469L1214.846 439.72 1089.135 314.01 1026.385 376.757 1026.135 377.009 900.675 502.468 975.141 576.935 1077.631 576.935 1151.846 502.72z"/>
                <circle cx="1064.621" cy="467.716" r="66.537" fill="#FFF" fill-rule="nonzero"/>
                <path fill="#000" fill-rule="nonzero" d="M1010.52 458.45c17.53-17.523 45.944-17.521 63.47.005 17.525 17.526 17.528 45.94.005 63.469l-63.474-63.475z"/>
                <path fill="#FFF" fill-rule="nonzero" d="M1058.01 496.18c-8.35 0-15.977-4.734-19.683-12.216-3.706-7.482-2.85-16.418 2.21-23.06l.254-.335-.388-.363c-1.563-1.521-2.191-3.763-1.646-5.874.545-2.111 2.18-3.769 4.284-4.343 2.103-.574 4.353.024 5.895 1.565.49.492.891 1.064 1.186 1.691l.181.38.397-.139c7.982-2.816 16.871-.8 22.856 5.186 5.985 5.984 8.002 14.874 5.186 22.855l-.14.398.38.18c2.567 1.218 3.946 4.052 3.321 6.823-.624 2.772-3.086 4.74-5.927 4.74-1.613.004-3.16-.637-4.298-1.78l-.128-.144-.29-.308-.335.256c-3.83 2.907-8.506 4.484-13.315 4.489z"/>
                <path fill="#000" fill-rule="nonzero" d="M1044.639 450.242c2.166-.005 4.14 1.244 5.062 3.204l.36.761.795-.28c7.812-2.756 16.512-.782 22.37 5.076 5.857 5.857 7.831 14.558 5.075 22.37l-.28.793.761.362c2.018.959 3.273 3.023 3.197 5.256-.076 2.232-1.47 4.206-3.548 5.025-2.078.82-4.444.327-6.023-1.253l-.036-.042-.081-.09-.578-.616-.672.512c-3.749 2.845-8.324 4.388-13.03 4.393-8.172 0-15.637-4.634-19.265-11.957-3.627-7.322-2.79-16.068 2.162-22.57l.513-.672-.618-.577-.09-.08-.041-.038c-1.605-1.604-2.085-4.017-1.216-6.114.868-2.096 2.914-3.463 5.183-3.463m0-.935c-2.647 0-5.034 1.594-6.047 4.04-1.013 2.446-.453 5.262 1.419 7.134.05.049.103.091.154.139-6.8 8.933-5.952 21.518 1.987 29.456 7.939 7.94 20.523 8.788 29.457 1.988.047.05.09.104.139.153 1.841 1.852 4.607 2.432 7.036 1.476 2.43-.956 4.06-3.264 4.146-5.874.087-2.61-1.386-5.021-3.747-6.136 2.872-8.151.81-17.226-5.3-23.337-6.111-6.11-15.187-8.172-23.338-5.3-1.077-2.287-3.379-3.744-5.906-3.74z"/>
                <path fill="#000" fill-rule="nonzero" d="M1089.756 464.447c-10.483 0-19.507-7.405-21.552-17.687-2.046-10.281 3.456-20.576 13.142-24.588 9.685-4.012 20.855-.624 26.68 8.093 5.824 8.716 4.68 20.333-2.733 27.746-4.112 4.134-9.706 6.451-15.537 6.436z"/>
                <path fill="#000" fill-rule="nonzero" d="M1089.755 420.966c10.26 0 19.092 7.248 21.094 17.311 2.001 10.063-3.385 20.139-12.864 24.065-9.479 3.927-20.412.61-26.112-7.921-5.7-8.531-4.58-19.9 2.675-27.156 4.024-4.046 9.5-6.314 15.207-6.299m0-.935c-10.706 0-19.921 7.563-22.01 18.064-2.088 10.5 3.531 21.014 13.423 25.111 9.891 4.097 21.3.636 27.247-8.266 5.948-8.902 4.78-20.766-2.791-28.336-4.204-4.215-9.915-6.58-15.869-6.573z"/>
                <path fill="#000" fill-rule="nonzero" d="M1080.395 472.694c-.74-11.2-9.66-20.12-20.861-20.861l20.861 20.861zM1062.437 477.417l-2.369 2.373c-.288.288-.45.68-.45 1.088.001.407.164.798.453 1.086.6.6 1.574.6 2.174 0l2.37-2.374c.288-.288.45-.68.449-1.087 0-.408-.163-.8-.452-1.087-.289-.288-.68-.45-1.088-.45-.407 0-.798.162-1.087.45zM1052.85 467.83l-2.37 2.373c-.287.288-.449.68-.448 1.087 0 .408.163.8.452 1.087.288.288.68.45 1.087.45.408 0 .799-.162 1.087-.45l2.37-2.374c.288-.288.449-.68.449-1.088-.001-.407-.163-.798-.452-1.086-.6-.6-1.575-.6-2.175 0z"/>
                <path fill="url(#b0g65ckptD)" fill-rule="nonzero" d="M1151.267 0L1147.701 0 1032.283 0 966.299 65.662 966.048 65.913 903.146 128.508 1028.55 254.525 1091.452 191.93 1091.703 191.68 1164.359 119.378 1217.47 66.526z"/>
                <path fill="#FFF" fill-rule="nonzero" d="M1067.643 34.308l-40.913 40.8c-14.052 13.994-14.389 36.638-.76 51.044 13.628 14.406 36.256 15.325 51.007 2.071l13.67 13.707.037-27.238 28.64-28.56c9.257-9.232 12.886-22.701 9.52-35.334-3.366-12.634-13.216-22.511-25.84-25.913-12.624-3.4-26.103.19-35.36 9.423z"/>
                <circle cx="1051.602" cy="102.015" r="8.45" fill="#000" fill-rule="nonzero"/>
                <circle cx="1073.54" cy="80.137" r="8.45" fill="#000" fill-rule="nonzero"/>
                <circle cx="1095.478" cy="58.26" r="8.45" fill="#000" fill-rule="nonzero"/>
            </g>
        </g>
    </g>
</svg>
